<svg width="2368" height="2341" viewBox="0 0 2368 2341" fill="none" xmlns="http://www.w3.org/2000/svg">
<path fill-rule="evenodd" clip-rule="evenodd" d="M2110.52 1050.94C2111.84 1047.7 2148.67 1338.68 2151.69 1338.11C2194.87 1329.94 2340.38 1273.4 2367.95 1256.4C2370.35 1254.95 2293.39 1452.63 2169.52 1558.64C2166.08 1561.59 2179.73 1720.5 2181.33 1795.52C2181.39 1799.07 2051.13 1746.84 1989.62 1711.73C1900.15 1770.32 1688.76 1836.42 1688.87 1840.28L1694.28 2054.79C1694.33 2057.03 2009.94 2018.92 2006.78 2021.56C1747.79 2240.02 1510.01 2339.33 1206.49 2341C1200.28 2341.03 1338.59 2254.21 1364.39 2197.7C1342.03 2175.28 1240.25 2088.62 1216.54 2059.84C1219.65 2054.22 1403.44 2071.11 1490.28 2070.83C1550.2 2007.54 1607.26 1941.09 1656.24 1868.58C1714.23 1782.78 1773.93 1697.6 1819.24 1603.94C1821.36 1599.45 1662.85 1468.98 1604.47 1391.1C1601.89 1387.69 1819.99 1397.34 1924.47 1387.44C1937.84 1386.13 2065.63 1159.05 2110.52 1050.94V1050.94ZM1440.35 0.0513362C1379.23 41.0355 1218.11 182.465 1224.6 184.707C1305.71 212.891 1390.56 240.876 1469.15 283.506C1471.61 284.812 1473.35 287.139 1476.09 291.538C1357.48 300.11 1244.16 296.306 1123.12 321.652C1069.27 392.097 1016.04 523.252 997.684 612.486C1052.96 703.423 1107.42 793.395 1168.04 879.025C1176.46 882.487 1441.5 809.516 1569.01 773.641C1569.01 773.641 1331.93 1096.26 1333.36 1097.97C1333.36 1097.97 1585.69 1379.92 1582.72 1379.49C1454.15 1360.7 1195.63 1296.93 1193.2 1301.13L1017.92 1599.57C996.733 1700.98 980.444 1808.35 968.998 1916.97C972.916 1924.74 1200.92 2048.46 1200.92 2048.46C1204.03 2050.17 1047.22 2070.69 971.349 2069.01C964.492 2068.87 967.514 2238.28 980.976 2314.01C981.62 2317.7 942.746 2316.45 927.073 2313.1C882.211 2271.12 722.238 2057.29 716.921 2056.75C587.342 2043.84 457.735 2023.2 335.657 1975.44C332.438 1974.19 607.241 1861.74 607.492 1860.94C609.228 1855.86 525.575 1689.2 502.15 1607.23C429.86 1563.75 285.672 1477.47 282.93 1481.3C231.658 1554.13 129.646 1703.73 129.002 1702.77C114.337 1680.46 105.213 1658.04 97.0973 1637.51C100.904 1542.97 122.173 1348.07 116.912 1343.98C77.4506 1313.64 -5.53021 1229.94 0.29104 1223.08C60.5186 1200.43 120.578 1183.77 182.709 1166.06C210.528 1095.18 302.66 929.063 311.028 913.027C310.301 902.809 230.622 813.263 204.623 772.165C200.229 765.183 13.5568 944.673 13.8646 942.686C69.0266 580.13 299.834 324.774 429.021 237.839C431.204 236.363 379.176 389.429 366.078 467.537C365.323 472.163 484.463 473.242 539.093 476.875C539.792 481.728 369.661 609.761 329.919 643.536C323.343 770.576 319.508 942.488 343.213 1119.59C349.342 1126.15 516.675 1119.22 637.634 1101.83C704.858 1063.6 911.093 981.826 938.352 972.743C942.802 971.267 966.451 728.399 992.842 612.628C982.487 597.585 836.872 387.84 836.872 387.84C833.514 382.787 654.37 436.657 572.061 465.522C568.367 466.828 702.032 303.459 766.961 263.922C772.838 250.384 701.052 78.1028 701.052 78.1028C700.045 74.4131 903.201 93.7983 998.748 121.528C1129.95 50.8274 1443.32 -1.87866 1440.35 0.0513362V0.0513362ZM409.934 1323.29C404.756 1329.45 398.039 1336.26 400.306 1344.92C423.647 1434.44 461.625 1518.93 505.732 1603.85L541.304 1632.55C606.793 1682.9 672.002 1733.76 740.094 1780.65C744.508 1783.72 749.727 1785.37 755.079 1785.41C760.43 1785.45 765.67 1783.86 770.124 1780.85C854.448 1724.73 939.248 1668.51 1013.89 1597.33C985.594 1477.3 958.95 1354.88 953.829 1229.92C953.633 1225.18 951.142 1219.13 948.008 1218L638.586 1107.16C556.109 1174.14 477.354 1243.06 409.934 1323.29Z" fill="#E3EBF5"/>
</svg>
